<?xml version="1.0" encoding="UTF-8" standalone="no"?>
<!DOCTYPE svg PUBLIC "-//W3C//DTD SVG 1.1//EN" "http://www.w3.org/Graphics/SVG/1.1/DTD/svg11.dtd">
<svg width="100%" height="100%" viewBox="0 0 200 200" version="1.1"
    xmlns="http://www.w3.org/2000/svg"
    xmlns:xlink="http://www.w3.org/1999/xlink" xml:space="preserve"
    xmlns:serif="http://www.serif.com/" style="fill-rule:evenodd;clip-rule:evenodd;stroke-linejoin:round;stroke-miterlimit:2;">
    <g>
        <path d="M146.371,34.589C147.629,31.556 148.272,28.305 148.265,25.022C148.267,20.083 146.806,15.255 144.066,11.146C141.326,7.036 137.431,3.831 132.871,1.935C128.311,0.038 123.291,-0.465 118.445,0.489C113.6,1.443 109.145,3.811 105.644,7.294L100.004,12.547L94.402,7.312C89.711,2.626 83.35,-0.004 76.72,0C70.089,0.004 63.732,2.642 59.047,7.333C54.361,12.025 51.731,18.385 51.735,25.016C51.739,31.646 54.377,38.003 59.068,42.689L97.548,81.737C97.869,82.063 98.251,82.322 98.673,82.498C99.094,82.675 99.547,82.766 100.004,82.766C100.461,82.766 100.914,82.675 101.335,82.498C101.757,82.322 102.139,82.063 102.46,81.737L140.94,42.689C143.268,40.374 145.114,37.621 146.371,34.589ZM53.629,165.411C52.371,168.444 51.728,171.695 51.735,174.978C51.733,179.917 53.194,184.746 55.934,188.855C58.673,192.964 62.569,196.169 67.129,198.065C71.689,199.962 76.709,200.465 81.555,199.511C86.4,198.557 90.855,196.189 94.356,192.706L99.996,187.453L105.598,192.688C110.289,197.374 116.65,200.004 123.28,200C129.911,199.996 136.268,197.358 140.954,192.667C145.639,187.976 148.269,181.615 148.265,174.985C148.261,168.354 145.623,161.997 140.932,157.311L102.452,118.263C102.132,117.937 101.749,117.678 101.327,117.502C100.906,117.325 100.453,117.234 99.996,117.234C99.539,117.234 99.086,117.325 98.665,117.502C98.243,117.678 97.861,117.937 97.54,118.263L59.06,157.311C56.732,159.626 54.886,162.379 53.629,165.411ZM174.978,148.266C171.695,148.273 168.444,147.629 165.411,146.372C162.379,145.115 159.626,143.268 157.311,140.94L118.263,102.461C117.937,102.14 117.678,101.757 117.502,101.336C117.325,100.914 117.234,100.462 117.234,100.004C117.234,99.547 117.325,99.095 117.502,98.673C117.678,98.251 117.937,97.869 118.263,97.548L157.311,59.069C161.997,54.377 168.354,51.739 174.985,51.735C181.615,51.731 187.976,54.361 192.667,59.047C197.358,63.733 199.996,70.09 200,76.72C200.004,83.351 197.374,89.711 192.688,94.403L187.453,100.004L192.706,105.645C196.189,109.146 198.557,113.6 199.511,118.446C200.465,123.292 199.962,128.311 198.065,132.871C196.169,137.431 192.964,141.327 188.855,144.067C184.746,146.807 179.917,148.268 174.978,148.266ZM34.589,53.628C31.556,52.371 28.305,51.727 25.022,51.734C20.083,51.732 15.254,53.193 11.146,55.933C7.036,58.673 3.831,62.569 1.935,67.129C0.038,71.689 -0.465,76.708 0.489,81.554C1.443,86.4 3.811,90.854 7.294,94.355L12.547,99.996L7.312,105.597C2.626,110.289 -0.004,116.649 0,123.28C0.004,129.91 2.642,136.267 7.333,140.953C12.025,145.639 18.385,148.269 25.016,148.265C31.646,148.261 38.003,145.623 42.689,140.931L81.737,102.452C82.063,102.131 82.322,101.749 82.498,101.327C82.675,100.905 82.766,100.453 82.766,99.996C82.766,99.538 82.675,99.086 82.498,98.664C82.322,98.243 82.063,97.86 81.737,97.539L42.689,59.06C40.374,56.731 37.621,54.885 34.589,53.628Z" style="fill:url(#_Linear1);"/>
    </g>
    <defs>
        <linearGradient id="_Linear1" x1="0" y1="0" x2="1" y2="0" gradientUnits="userSpaceOnUse" gradientTransform="matrix(-137.5,152.5,-152.5,-137.5,177,-9.23648e-06)">
            <stop offset="0" style="stop-color:rgb(255,69,82);stop-opacity:1"/>
            <stop offset="1" style="stop-color:rgb(239,232,216);stop-opacity:1"/>
        </linearGradient>
    </defs>
</svg>
